<mxfile host="app.diagrams.net" agent="Mozilla/5.0 (Windows NT 10.0; Win64; x64) AppleWebKit/537.36 (KHTML, like Gecko) Chrome/128.0.0.0 Safari/537.36" version="24.7.12">
  <diagram name="Page-1" id="OHq4q7W8kAcJ0XfRLgiS">
    <mxGraphModel dx="1877" dy="652" grid="1" gridSize="10" guides="1" tooltips="1" connect="1" arrows="1" fold="1" page="1" pageScale="1" pageWidth="827" pageHeight="1169" math="0" shadow="0">
      <root>
        <mxCell id="0" />
        <mxCell id="1" parent="0" />
        <mxCell id="wRBo6HaBoQX4fFIZuCBr-1" value="1" style="rounded=0;whiteSpace=wrap;html=1;movable=0;resizable=0;rotatable=0;deletable=0;editable=0;locked=1;connectable=0;" vertex="1" parent="1">
          <mxGeometry x="120" y="180" width="120" height="60" as="geometry" />
        </mxCell>
        <mxCell id="wRBo6HaBoQX4fFIZuCBr-2" value="0" style="rounded=0;whiteSpace=wrap;html=1;movable=0;resizable=0;rotatable=0;deletable=0;editable=0;locked=1;connectable=0;" vertex="1" parent="1">
          <mxGeometry x="200" y="50" width="120" height="60" as="geometry" />
        </mxCell>
        <mxCell id="wRBo6HaBoQX4fFIZuCBr-3" value="2" style="rounded=0;whiteSpace=wrap;html=1;movable=0;resizable=0;rotatable=0;deletable=0;editable=0;locked=1;connectable=0;" vertex="1" parent="1">
          <mxGeometry x="300" y="180" width="120" height="60" as="geometry" />
        </mxCell>
        <mxCell id="wRBo6HaBoQX4fFIZuCBr-4" value="3" style="rounded=0;whiteSpace=wrap;html=1;movable=0;resizable=0;rotatable=0;deletable=0;editable=0;locked=1;connectable=0;" vertex="1" parent="1">
          <mxGeometry x="230" y="280" width="120" height="60" as="geometry" />
        </mxCell>
        <mxCell id="wRBo6HaBoQX4fFIZuCBr-7" value="" style="endArrow=none;html=1;rounded=0;entryX=0.5;entryY=1;entryDx=0;entryDy=0;exitX=0.5;exitY=0;exitDx=0;exitDy=0;movable=0;resizable=0;rotatable=0;deletable=0;editable=0;locked=1;connectable=0;" edge="1" parent="1" source="wRBo6HaBoQX4fFIZuCBr-1" target="wRBo6HaBoQX4fFIZuCBr-2">
          <mxGeometry width="50" height="50" relative="1" as="geometry">
            <mxPoint x="40" y="230" as="sourcePoint" />
            <mxPoint x="90" y="180" as="targetPoint" />
          </mxGeometry>
        </mxCell>
        <mxCell id="wRBo6HaBoQX4fFIZuCBr-8" value="" style="endArrow=none;html=1;rounded=0;exitX=0.5;exitY=0;exitDx=0;exitDy=0;entryX=0.5;entryY=1;entryDx=0;entryDy=0;movable=0;resizable=0;rotatable=0;deletable=0;editable=0;locked=1;connectable=0;" edge="1" parent="1" source="wRBo6HaBoQX4fFIZuCBr-3" target="wRBo6HaBoQX4fFIZuCBr-2">
          <mxGeometry width="50" height="50" relative="1" as="geometry">
            <mxPoint x="360" y="340" as="sourcePoint" />
            <mxPoint x="260" y="180" as="targetPoint" />
          </mxGeometry>
        </mxCell>
        <mxCell id="wRBo6HaBoQX4fFIZuCBr-9" value="" style="endArrow=none;html=1;rounded=0;exitX=0.5;exitY=0;exitDx=0;exitDy=0;entryX=0.5;entryY=1;entryDx=0;entryDy=0;movable=0;resizable=0;rotatable=0;deletable=0;editable=0;locked=1;connectable=0;" edge="1" parent="1" source="wRBo6HaBoQX4fFIZuCBr-4" target="wRBo6HaBoQX4fFIZuCBr-3">
          <mxGeometry width="50" height="50" relative="1" as="geometry">
            <mxPoint x="360" y="340" as="sourcePoint" />
            <mxPoint x="370" y="170" as="targetPoint" />
          </mxGeometry>
        </mxCell>
        <mxCell id="wRBo6HaBoQX4fFIZuCBr-10" value="4" style="rounded=0;whiteSpace=wrap;html=1;movable=0;resizable=0;rotatable=0;deletable=0;editable=0;locked=1;connectable=0;" vertex="1" parent="1">
          <mxGeometry x="390" y="700" width="120" height="60" as="geometry" />
        </mxCell>
        <mxCell id="wRBo6HaBoQX4fFIZuCBr-11" value="5" style="rounded=0;whiteSpace=wrap;html=1;movable=0;resizable=0;rotatable=0;deletable=0;editable=0;locked=1;connectable=0;" vertex="1" parent="1">
          <mxGeometry x="340" y="790" width="120" height="60" as="geometry" />
        </mxCell>
        <mxCell id="wRBo6HaBoQX4fFIZuCBr-12" value="0" style="rounded=0;whiteSpace=wrap;html=1;movable=0;resizable=0;rotatable=0;deletable=0;editable=0;locked=1;connectable=0;" vertex="1" parent="1">
          <mxGeometry x="230" y="570" width="120" height="60" as="geometry" />
        </mxCell>
        <mxCell id="wRBo6HaBoQX4fFIZuCBr-13" value="1" style="rounded=0;whiteSpace=wrap;html=1;movable=0;resizable=0;rotatable=0;deletable=0;editable=0;locked=1;connectable=0;" vertex="1" parent="1">
          <mxGeometry x="70" y="700" width="120" height="60" as="geometry" />
        </mxCell>
        <mxCell id="wRBo6HaBoQX4fFIZuCBr-14" value="2" style="rounded=0;whiteSpace=wrap;html=1;movable=0;resizable=0;rotatable=0;deletable=0;editable=0;locked=1;connectable=0;" vertex="1" parent="1">
          <mxGeometry x="230" y="700" width="120" height="60" as="geometry" />
        </mxCell>
        <mxCell id="wRBo6HaBoQX4fFIZuCBr-15" value="3" style="rounded=0;whiteSpace=wrap;html=1;movable=0;resizable=0;rotatable=0;deletable=0;editable=0;locked=1;connectable=0;" vertex="1" parent="1">
          <mxGeometry x="160" y="790" width="120" height="60" as="geometry" />
        </mxCell>
        <mxCell id="wRBo6HaBoQX4fFIZuCBr-16" value="" style="endArrow=none;html=1;rounded=0;entryX=0.5;entryY=1;entryDx=0;entryDy=0;exitX=0.442;exitY=-0.017;exitDx=0;exitDy=0;exitPerimeter=0;movable=0;resizable=0;rotatable=0;deletable=0;editable=0;locked=1;connectable=0;" edge="1" parent="1" source="wRBo6HaBoQX4fFIZuCBr-11" target="wRBo6HaBoQX4fFIZuCBr-10">
          <mxGeometry width="50" height="50" relative="1" as="geometry">
            <mxPoint x="80" y="760" as="sourcePoint" />
            <mxPoint x="130" y="710" as="targetPoint" />
          </mxGeometry>
        </mxCell>
        <mxCell id="wRBo6HaBoQX4fFIZuCBr-21" value="" style="endArrow=none;html=1;rounded=0;exitX=0.5;exitY=1;exitDx=0;exitDy=0;entryX=0.5;entryY=0;entryDx=0;entryDy=0;movable=0;resizable=0;rotatable=0;deletable=0;editable=0;locked=1;connectable=0;" edge="1" parent="1" source="wRBo6HaBoQX4fFIZuCBr-14" target="wRBo6HaBoQX4fFIZuCBr-15">
          <mxGeometry width="50" height="50" relative="1" as="geometry">
            <mxPoint x="620" y="710" as="sourcePoint" />
            <mxPoint x="670" y="660" as="targetPoint" />
          </mxGeometry>
        </mxCell>
        <mxCell id="wRBo6HaBoQX4fFIZuCBr-22" value="" style="endArrow=none;html=1;rounded=0;exitX=0.5;exitY=0;exitDx=0;exitDy=0;entryX=0.5;entryY=1;entryDx=0;entryDy=0;movable=0;resizable=0;rotatable=0;deletable=0;editable=0;locked=1;connectable=0;" edge="1" parent="1" source="wRBo6HaBoQX4fFIZuCBr-13" target="wRBo6HaBoQX4fFIZuCBr-12">
          <mxGeometry width="50" height="50" relative="1" as="geometry">
            <mxPoint x="430" y="770" as="sourcePoint" />
            <mxPoint x="480" y="720" as="targetPoint" />
          </mxGeometry>
        </mxCell>
        <mxCell id="wRBo6HaBoQX4fFIZuCBr-25" value="" style="endArrow=none;html=1;rounded=0;entryX=0.5;entryY=1;entryDx=0;entryDy=0;exitX=0.5;exitY=0;exitDx=0;exitDy=0;movable=0;resizable=0;rotatable=0;deletable=0;editable=0;locked=1;connectable=0;" edge="1" parent="1" source="wRBo6HaBoQX4fFIZuCBr-14" target="wRBo6HaBoQX4fFIZuCBr-12">
          <mxGeometry width="50" height="50" relative="1" as="geometry">
            <mxPoint x="300" y="920" as="sourcePoint" />
            <mxPoint x="350" y="870" as="targetPoint" />
          </mxGeometry>
        </mxCell>
        <mxCell id="wRBo6HaBoQX4fFIZuCBr-26" value="" style="endArrow=none;html=1;rounded=0;entryX=0.5;entryY=1;entryDx=0;entryDy=0;exitX=0.5;exitY=0;exitDx=0;exitDy=0;movable=0;resizable=0;rotatable=0;deletable=0;editable=0;locked=1;connectable=0;" edge="1" parent="1" source="wRBo6HaBoQX4fFIZuCBr-10" target="wRBo6HaBoQX4fFIZuCBr-12">
          <mxGeometry width="50" height="50" relative="1" as="geometry">
            <mxPoint x="390" y="860" as="sourcePoint" />
            <mxPoint x="440" y="810" as="targetPoint" />
          </mxGeometry>
        </mxCell>
        <mxCell id="wRBo6HaBoQX4fFIZuCBr-27" value="0" style="rounded=0;whiteSpace=wrap;html=1;movable=0;resizable=0;rotatable=0;deletable=0;editable=0;locked=1;connectable=0;" vertex="1" parent="1">
          <mxGeometry x="120" y="880" width="120" height="60" as="geometry" />
        </mxCell>
        <mxCell id="wRBo6HaBoQX4fFIZuCBr-28" value="1" style="rounded=0;whiteSpace=wrap;html=1;movable=0;resizable=0;rotatable=0;deletable=0;editable=0;locked=1;connectable=0;" vertex="1" parent="1">
          <mxGeometry x="-60" y="1020" width="120" height="60" as="geometry" />
        </mxCell>
        <mxCell id="wRBo6HaBoQX4fFIZuCBr-29" value="2" style="rounded=0;whiteSpace=wrap;html=1;movable=0;resizable=0;rotatable=0;deletable=0;editable=0;locked=1;connectable=0;" vertex="1" parent="1">
          <mxGeometry x="120" y="1020" width="120" height="60" as="geometry" />
        </mxCell>
        <mxCell id="wRBo6HaBoQX4fFIZuCBr-30" value="3" style="rounded=0;whiteSpace=wrap;html=1;movable=0;resizable=0;rotatable=0;deletable=0;editable=0;locked=1;connectable=0;" vertex="1" parent="1">
          <mxGeometry x="20" y="1130" width="120" height="60" as="geometry" />
        </mxCell>
        <mxCell id="wRBo6HaBoQX4fFIZuCBr-31" value="4" style="rounded=0;whiteSpace=wrap;html=1;movable=0;resizable=0;rotatable=0;deletable=0;editable=0;locked=1;connectable=0;" vertex="1" parent="1">
          <mxGeometry x="330" y="1020" width="120" height="60" as="geometry" />
        </mxCell>
        <mxCell id="wRBo6HaBoQX4fFIZuCBr-32" value="5" style="rounded=0;whiteSpace=wrap;html=1;movable=0;resizable=0;rotatable=0;deletable=0;editable=0;locked=1;connectable=0;" vertex="1" parent="1">
          <mxGeometry x="220" y="1150" width="120" height="60" as="geometry" />
        </mxCell>
        <mxCell id="wRBo6HaBoQX4fFIZuCBr-33" value="6" style="rounded=0;whiteSpace=wrap;html=1;movable=0;resizable=0;rotatable=0;deletable=0;editable=0;locked=1;connectable=0;" vertex="1" parent="1">
          <mxGeometry x="400" y="1150" width="120" height="60" as="geometry" />
        </mxCell>
        <mxCell id="wRBo6HaBoQX4fFIZuCBr-34" value="7" style="rounded=0;whiteSpace=wrap;html=1;movable=0;resizable=0;rotatable=0;deletable=0;editable=0;locked=1;connectable=0;" vertex="1" parent="1">
          <mxGeometry x="330" y="1260" width="120" height="60" as="geometry" />
        </mxCell>
        <mxCell id="wRBo6HaBoQX4fFIZuCBr-41" value="" style="endArrow=none;html=1;rounded=0;entryX=0.5;entryY=1;entryDx=0;entryDy=0;exitX=0.5;exitY=0;exitDx=0;exitDy=0;movable=0;resizable=0;rotatable=0;deletable=0;editable=0;locked=1;connectable=0;" edge="1" parent="1" source="wRBo6HaBoQX4fFIZuCBr-33" target="wRBo6HaBoQX4fFIZuCBr-31">
          <mxGeometry width="50" height="50" relative="1" as="geometry">
            <mxPoint x="640" y="970" as="sourcePoint" />
            <mxPoint x="690" y="920" as="targetPoint" />
          </mxGeometry>
        </mxCell>
        <mxCell id="wRBo6HaBoQX4fFIZuCBr-42" value="" style="endArrow=none;html=1;rounded=0;entryX=0.5;entryY=1;entryDx=0;entryDy=0;exitX=0.5;exitY=0;exitDx=0;exitDy=0;movable=0;resizable=0;rotatable=0;deletable=0;editable=0;locked=1;connectable=0;" edge="1" parent="1" source="wRBo6HaBoQX4fFIZuCBr-31" target="wRBo6HaBoQX4fFIZuCBr-27">
          <mxGeometry width="50" height="50" relative="1" as="geometry">
            <mxPoint x="470" y="970" as="sourcePoint" />
            <mxPoint x="520" y="920" as="targetPoint" />
          </mxGeometry>
        </mxCell>
        <mxCell id="wRBo6HaBoQX4fFIZuCBr-43" value="" style="endArrow=none;html=1;rounded=0;entryX=0.5;entryY=1;entryDx=0;entryDy=0;exitX=0.5;exitY=0;exitDx=0;exitDy=0;movable=0;resizable=0;rotatable=0;deletable=0;editable=0;locked=1;connectable=0;" edge="1" parent="1" source="wRBo6HaBoQX4fFIZuCBr-34" target="wRBo6HaBoQX4fFIZuCBr-33">
          <mxGeometry width="50" height="50" relative="1" as="geometry">
            <mxPoint x="600" y="1230" as="sourcePoint" />
            <mxPoint x="650" y="1180" as="targetPoint" />
          </mxGeometry>
        </mxCell>
        <mxCell id="wRBo6HaBoQX4fFIZuCBr-44" value="" style="endArrow=none;html=1;rounded=0;entryX=0.5;entryY=1;entryDx=0;entryDy=0;exitX=0.5;exitY=0;exitDx=0;exitDy=0;movable=0;resizable=0;rotatable=0;deletable=0;editable=0;locked=1;connectable=0;" edge="1" parent="1" source="wRBo6HaBoQX4fFIZuCBr-32" target="wRBo6HaBoQX4fFIZuCBr-31">
          <mxGeometry width="50" height="50" relative="1" as="geometry">
            <mxPoint x="250" y="1150" as="sourcePoint" />
            <mxPoint x="300" y="1100" as="targetPoint" />
          </mxGeometry>
        </mxCell>
        <mxCell id="wRBo6HaBoQX4fFIZuCBr-45" value="" style="endArrow=none;html=1;rounded=0;entryX=0.5;entryY=1;entryDx=0;entryDy=0;exitX=0.5;exitY=0;exitDx=0;exitDy=0;movable=0;resizable=0;rotatable=0;deletable=0;editable=0;locked=1;connectable=0;" edge="1" parent="1" source="wRBo6HaBoQX4fFIZuCBr-28" target="wRBo6HaBoQX4fFIZuCBr-27">
          <mxGeometry width="50" height="50" relative="1" as="geometry">
            <mxPoint x="20" y="1000" as="sourcePoint" />
            <mxPoint x="70" y="950" as="targetPoint" />
          </mxGeometry>
        </mxCell>
        <mxCell id="wRBo6HaBoQX4fFIZuCBr-46" value="" style="endArrow=none;html=1;rounded=0;entryX=0.5;entryY=1;entryDx=0;entryDy=0;exitX=0.5;exitY=0;exitDx=0;exitDy=0;movable=0;resizable=0;rotatable=0;deletable=0;editable=0;locked=1;connectable=0;" edge="1" parent="1" source="wRBo6HaBoQX4fFIZuCBr-29" target="wRBo6HaBoQX4fFIZuCBr-27">
          <mxGeometry width="50" height="50" relative="1" as="geometry">
            <mxPoint x="120" y="1030" as="sourcePoint" />
            <mxPoint x="170" y="980" as="targetPoint" />
          </mxGeometry>
        </mxCell>
        <mxCell id="wRBo6HaBoQX4fFIZuCBr-47" value="" style="endArrow=none;html=1;rounded=0;entryX=0.5;entryY=1;entryDx=0;entryDy=0;exitX=0.5;exitY=0;exitDx=0;exitDy=0;movable=0;resizable=0;rotatable=0;deletable=0;editable=0;locked=1;connectable=0;" edge="1" parent="1" source="wRBo6HaBoQX4fFIZuCBr-30" target="wRBo6HaBoQX4fFIZuCBr-29">
          <mxGeometry width="50" height="50" relative="1" as="geometry">
            <mxPoint x="10" y="1170" as="sourcePoint" />
            <mxPoint x="60" y="1120" as="targetPoint" />
          </mxGeometry>
        </mxCell>
      </root>
    </mxGraphModel>
  </diagram>
</mxfile>
